# xmcd CD database file
#
# Track frame offsets:
#	150
#	15096
#	25001
#	35970
#	49907
#	63052
#	76221
#	87173
#	96284
#	108664
#	115322
#	127434
#	136931
#	151394
#	166679
#	181678
#	197178
#
# Disc length: 2779 seconds
#
# Revision: 0
# Processed by: cddbd v1.5.2PL0 Copyright (c) Steve Scherf et al.
# Submitted via: CDex 2.05
#
DISCID=d90ad911
DTITLE=Jeremy steig and Eddie Gomez - JAM
DYEAR=2003
DGENRE=Jazz
TTITLE0=Land Scape
TTITLE1=Jam
TTITLE2=Short Story
TTITLE3=Charles Street
TTITLE4=Charm
TTITLE5=Samurai
TTITLE6=Scoundrels
TTITLE7=Odyssey
TTITLE8=Dew
TTITLE9=Fly
TTITLE10=Blondie
TTITLE11=You Are
TTITLE12=Cathedral
TTITLE13=Trace
TTITLE14=Her Face
TTITLE15=Water Lilies
TTITLE16=Hip
EXTD=YEAR: 2003
EXTT0=
EXTT1=
EXTT2=
EXTT3=
EXTT4=
EXTT5=
EXTT6=
EXTT7=
EXTT8=
EXTT9=
EXTT10=
EXTT11=
EXTT12=
EXTT13=
EXTT14=
EXTT15=
EXTT16=
PLAYORDER=
